{"accessors" : [{"bufferView" : 0, "byteOffset" : 0, "componentType" : 5123, "count" : 300, "type" : "SCALAR", "max" : [299], "min" : [0]}, {"bufferView" : 1, "byteOffset" : 0, "componentType" : 5126, "count" : 300, "type" : "VEC3", "max" : [35.84600067138672, 15.139570236206055, 35.77527618408203], "min" : [-35.84601974487305, -0.48972800374031067, -35.77529525756836], "name" : "POSITION"}, {"bufferView" : 1, "byteOffset" : 12, "componentType" : 5126, "count" : 300, "type" : "VEC2", "max" : [0.9821599721908569, -0.015797000378370285], "min" : [0.07262200117111206, -0.9842029809951782], "name" : "TEXCOORD_0"}, {"bufferView" : 1, "byteOffset" : 20, "componentType" : 5126, "count" : 300, "type" : "VEC3", "max" : [1.0000044107437134, 0, 0.9980311989784241], "min" : [-1.0000044107437134, 0, -0.9980311989784241], "name" : "NORMAL"}], "asset" : {"generator" : "Aspose.3D 23.7.0", "version" : "2.0"}, "buffers" : [{"uri" : "data:application/octet-stream;base64,", "byteLength" : 10208}], "bufferViews" : [{"buffer" : 0, "byteOffset" : 0, "byteLength" : 600, "target" : 34963}, {"buffer" : 0, "byteOffset" : 604, "byteLength" : 9600, "byteStride" : 32, "target" : 34962}], "images" : [{"uri" : "f_mountains.png"}], "materials" : [{"name" : "lambert2SG", "pbrMetallicRoughness" : {"baseColorFactor" : [0, 0, 0, 1], "baseColorTexture" : {"index" : 0, "texCoord" : 0}, "metallicFactor" : 0, "roughnessFactor" : 0}, "emissiveFactor" : [0, 0, 0], "alphaMode" : "OPAQUE", "doubleSided" : false}], "meshes" : [{"primitives" : [{"attributes" : {"POSITION" : 1, "TEXCOORD_0" : 2, "NORMAL" : 3}, "indices" : 0, "material" : 0, "mode" : 4}], "name" : ""}], "nodes" : [{"mesh" : 0, "name" : "Mountain_range"}], "samplers" : [{"magFilter" : 9729, "minFilter" : 9729, "wrapS" : 10497, "wrapT" : 10497}], "scene" : 0, "scenes" : [{"nodes" : [0]}], "textures" : [{"sampler" : 0, "source" : 0, "name" : ""}]}