{"accessors" : [{"bufferView" : 0, "byteOffset" : 0, "componentType" : 5123, "count" : 2508, "type" : "SCALAR", "max" : [2360], "min" : [0]}, {"bufferView" : 1, "byteOffset" : 0, "componentType" : 5126, "count" : 2361, "type" : "VEC3", "max" : [-56.14070129394531, 1.1811000108718872, -15.551899909973145], "min" : [-105.73380279541016, 0, -27.6648006439209], "name" : "POSITION"}, {"bufferView" : 1, "byteOffset" : 12, "componentType" : 5126, "count" : 2361, "type" : "VEC2", "max" : [0, -0], "min" : [0, -0], "name" : "TEXCOORD_0"}, {"bufferView" : 1, "byteOffset" : 20, "componentType" : 5126, "count" : 2361, "type" : "VEC3", "max" : [1.0000044107437134, 1.0000044107437134, 1.0000044107437134], "min" : [-1.0000044107437134, -1.0000044107437134, -1.0000044107437134], "name" : "NORMAL"}, {"bufferView" : 0, "byteOffset" : 5016, "componentType" : 5123, "count" : 3696, "type" : "SCALAR", "max" : [3475], "min" : [0]}, {"bufferView" : 2, "byteOffset" : 0, "componentType" : 5126, "count" : 3476, "type" : "VEC3", "max" : [-51.351898193359375, 1.1811000108718872, -133.0001983642578], "min" : [-118.17549896240234, 0, -145.1132049560547], "name" : "POSITION"}, {"bufferView" : 2, "byteOffset" : 12, "componentType" : 5126, "count" : 3476, "type" : "VEC2", "max" : [0, -0], "min" : [0, -0], "name" : "TEXCOORD_0"}, {"bufferView" : 2, "byteOffset" : 20, "componentType" : 5126, "count" : 3476, "type" : "VEC3", "max" : [1.0000044107437134, 1.0000044107437134, 1.0000044107437134], "min" : [-1.0000044107437134, -1.0000044107437134, -1.0000044107437134], "name" : "NORMAL"}, {"bufferView" : 0, "byteOffset" : 12408, "componentType" : 5123, "count" : 2736, "type" : "SCALAR", "max" : [2573], "min" : [0]}, {"bufferView" : 3, "byteOffset" : 0, "componentType" : 5126, "count" : 2574, "type" : "VEC3", "max" : [113.70339965820312, 1.1811000108718872, -131.80020141601562], "min" : [77.54869842529297, 0, -141.6427001953125], "name" : "POSITION"}, {"bufferView" : 3, "byteOffset" : 12, "componentType" : 5126, "count" : 2574, "type" : "VEC2", "max" : [0, -0], "min" : [0, -0], "name" : "TEXCOORD_0"}, {"bufferView" : 3, "byteOffset" : 20, "componentType" : 5126, "count" : 2574, "type" : "VEC3", "max" : [1.0000044107437134, 1.0000044107437134, 1.0000044107437134], "min" : [-1.0000044107437134, -1.0000044107437134, -1.0000044107437134], "name" : "NORMAL"}, {"bufferView" : 0, "byteOffset" : 17880, "componentType" : 5123, "count" : 3033, "type" : "SCALAR", "max" : [2838], "min" : [0]}, {"bufferView" : 4, "byteOffset" : 0, "componentType" : 5126, "count" : 2839, "type" : "VEC3", "max" : [41.48929977416992, 1.1811000108718872, -127.85800170898438], "min" : [-9.723699569702148, 0, -140.19790649414062], "name" : "POSITION"}, {"bufferView" : 4, "byteOffset" : 12, "componentType" : 5126, "count" : 2839, "type" : "VEC2", "max" : [0, -0], "min" : [0, -0], "name" : "TEXCOORD_0"}, {"bufferView" : 4, "byteOffset" : 20, "componentType" : 5126, "count" : 2839, "type" : "VEC3", "max" : [1.0000044107437134, 1.0000044107437134, 1.0000044107437134], "min" : [-1.0000044107437134, -1.0000044107437134, -1.0000044107437134], "name" : "NORMAL"}, {"bufferView" : 0, "byteOffset" : 23948, "componentType" : 5123, "count" : 4656, "type" : "SCALAR", "max" : [4369], "min" : [0]}, {"bufferView" : 5, "byteOffset" : 0, "componentType" : 5126, "count" : 4370, "type" : "VEC3", "max" : [107.67120361328125, 1.1811000108718872, -25.541099548339844], "min" : [48.19879913330078, 0, -37.65399932861328], "name" : "POSITION"}, {"bufferView" : 5, "byteOffset" : 12, "componentType" : 5126, "count" : 4370, "type" : "VEC2", "max" : [0, -0], "min" : [0, -0], "name" : "TEXCOORD_0"}, {"bufferView" : 5, "byteOffset" : 20, "componentType" : 5126, "count" : 4370, "type" : "VEC3", "max" : [1.0000044107437134, 1.0000044107437134, 1.0000044107437134], "min" : [-1.0000044107437134, -1.0000044107437134, -1.0000044107437134], "name" : "NORMAL"}, {"bufferView" : 0, "byteOffset" : 33260, "componentType" : 5123, "count" : 2820, "type" : "SCALAR", "max" : [2660], "min" : [0]}, {"bufferView" : 6, "byteOffset" : 0, "componentType" : 5126, "count" : 2661, "type" : "VEC3", "max" : [111.78359985351562, 3.3071000576019287, 113.53340148925781], "min" : [24.962299346923828, 0, 96.9979019165039], "name" : "POSITION"}, {"bufferView" : 6, "byteOffset" : 12, "componentType" : 5126, "count" : 2661, "type" : "VEC2", "max" : [0, -0], "min" : [0, -0], "name" : "TEXCOORD_0"}, {"bufferView" : 6, "byteOffset" : 20, "componentType" : 5126, "count" : 2661, "type" : "VEC3", "max" : [1.0000044107437134, 1.0000044107437134, 1.0000044107437134], "min" : [-1.0000044107437134, -1.0000044107437134, -1.0000044107437134], "name" : "NORMAL"}, {"bufferView" : 0, "byteOffset" : 38900, "componentType" : 5123, "count" : 1887, "type" : "SCALAR", "max" : [1634], "min" : [0]}, {"bufferView" : 7, "byteOffset" : 0, "componentType" : 5126, "count" : 1635, "type" : "VEC3", "max" : [-114.32160186767578, 66.60079956054688, 189.34210205078125], "min" : [-136.26429748535156, 0, 188.94039916992188], "name" : "POSITION"}, {"bufferView" : 7, "byteOffset" : 12, "componentType" : 5126, "count" : 1635, "type" : "VEC2", "max" : [0, -0], "min" : [0, -0], "name" : "TEXCOORD_0"}, {"bufferView" : 7, "byteOffset" : 20, "componentType" : 5126, "count" : 1635, "type" : "VEC3", "max" : [-0.018300674855709076, 0, 0.9998369216918945], "min" : [-0.018300674855709076, 0, 0.9998369216918945], "name" : "NORMAL"}, {"bufferView" : 0, "byteOffset" : 42676, "componentType" : 5123, "count" : 2304, "type" : "SCALAR", "max" : [1949], "min" : [0]}, {"bufferView" : 8, "byteOffset" : 0, "componentType" : 5126, "count" : 1950, "type" : "VEC3", "max" : [141.91439819335938, 0, 151.99639892578125], "min" : [-141.91439819335938, 0, -189.34219360351562], "name" : "POSITION"}, {"bufferView" : 8, "byteOffset" : 12, "componentType" : 5126, "count" : 1950, "type" : "VEC2", "max" : [17.37019920349121, -0], "min" : [0, -24.68549919128418], "name" : "TEXCOORD_0"}, {"bufferView" : 8, "byteOffset" : 20, "componentType" : 5126, "count" : 1950, "type" : "VEC3", "max" : [0, 1.0000044107437134, -0], "min" : [0, 1.0000044107437134, -0], "name" : "NORMAL"}], "asset" : {"generator" : "Aspose.3D 23.7.0", "version" : "2.0"}, "buffers" : [{"uri" : "data:application/octet-stream;base64,", "byteLength" : 803800}], "bufferViews" : [{"buffer" : 0, "byteOffset" : 0, "byteLength" : 47284, "target" : 34963}, {"buffer" : 0, "byteOffset" : 47288, "byteLength" : 80256, "byteStride" : 32, "target" : 34962}, {"buffer" : 0, "byteOffset" : 127548, "byteLength" : 118272, "byteStride" : 32, "target" : 34962}, {"buffer" : 0, "byteOffset" : 245824, "byteLength" : 87552, "byteStride" : 32, "target" : 34962}, {"buffer" : 0, "byteOffset" : 333380, "byteLength" : 97056, "byteStride" : 32, "target" : 34962}, {"buffer" : 0, "byteOffset" : 430440, "byteLength" : 148992, "byteStride" : 32, "target" : 34962}, {"buffer" : 0, "byteOffset" : 579436, "byteLength" : 90240, "byteStride" : 32, "target" : 34962}, {"buffer" : 0, "byteOffset" : 669680, "byteLength" : 60384, "byteStride" : 32, "target" : 34962}, {"buffer" : 0, "byteOffset" : 730068, "byteLength" : 73728, "byteStride" : 32, "target" : 34962}], "meshes" : [{"primitives" : [{"attributes" : {"POSITION" : 1, "TEXCOORD_0" : 2, "NORMAL" : 3}, "indices" : 0, "mode" : 4}], "name" : ""}, {"primitives" : [{"attributes" : {"POSITION" : 5, "TEXCOORD_0" : 6, "NORMAL" : 7}, "indices" : 4, "mode" : 4}], "name" : ""}, {"primitives" : [{"attributes" : {"POSITION" : 9, "TEXCOORD_0" : 10, "NORMAL" : 11}, "indices" : 8, "mode" : 4}], "name" : ""}, {"primitives" : [{"attributes" : {"POSITION" : 13, "TEXCOORD_0" : 14, "NORMAL" : 15}, "indices" : 12, "mode" : 4}], "name" : ""}, {"primitives" : [{"attributes" : {"POSITION" : 17, "TEXCOORD_0" : 18, "NORMAL" : 19}, "indices" : 16, "mode" : 4}], "name" : ""}, {"primitives" : [{"attributes" : {"POSITION" : 21, "TEXCOORD_0" : 22, "NORMAL" : 23}, "indices" : 20, "mode" : 4}], "name" : ""}, {"primitives" : [{"attributes" : {"POSITION" : 25, "TEXCOORD_0" : 26, "NORMAL" : 27}, "indices" : 24, "mode" : 4}], "name" : ""}, {"primitives" : [{"attributes" : {"POSITION" : 29, "TEXCOORD_0" : 30, "NORMAL" : 31}, "indices" : 28, "mode" : 4}], "name" : ""}], "nodes" : [{"mesh" : 0, "name" : "quintal_001"}, {"mesh" : 1, "name" : "quartinho_001"}, {"mesh" : 2, "name" : "banho_001"}, {"mesh" : 3, "name" : "servio_001"}, {"mesh" : 4, "name" : "despensa_001"}, {"mesh" : 5, "name" : "cozinha_001"}, {"mesh" : 6, "name" : "Susan_001"}, {"mesh" : 7, "name" : "Layer0_001"}], "scene" : 0, "scenes" : [{"nodes" : [0, 1, 2, 3, 4, 5, 6, 7]}]}